<svg viewBox="0 0 500 500" xmlns="http://www.w3.org/2000/svg"><g fill="none" fill-rule="evenodd"><g fill="#4a4a4a"><path d="m299.89 329.51c-30.3 24.1-68.66 38.492-110.39 38.492-98.03 0-177.5-79.47-177.5-177.5 0-98.03 79.47-177.5 177.5-177.5 98.03 0 177.5 79.47 177.5 177.5 0 40.721-13.712 78.24-36.772 108.19l36.14 37.11 8.424-7.761c2.028-1.868 5.15-1.709 6.982.364l107.86 122.06c1.828 2.069 1.708 5.318-.258 7.245l-39.823 39.05c-1.971 1.932-5.156 1.911-7.107-.038l-116.74-116.67c-1.955-1.953-1.9-5.05.133-6.919l8.584-7.908-34.544-35.711m-110.39 4.137c79.06 0 143.15-64.09 143.15-143.15 0-79.06-64.09-143.15-143.15-143.15-79.06 0-143.15 64.09-143.15 143.15 0 79.06 64.09 143.15 143.15 143.15"/><path d="m81.52 127c0 0 17.48-30.619 50.24-47.19 32.759-16.575 64.39-16.482 64.39-16.482v16.482c0 0-24.799-3.544-57.932 15.169-33.13 18.713-43.973 41.19-43.973 41.19l-12.725-9.16"/></g><path d="m67.829 194.45l21.773-1.364c.471 3.536 1.431 6.23 2.879 8.08 2.357 2.997 5.725 4.496 10.1 4.496 3.267 0 5.784-.766 7.552-2.298 1.768-1.532 2.652-3.309 2.652-5.329 0-1.92-.842-3.637-2.526-5.153-1.684-1.515-5.59-2.947-11.72-4.294-10.04-2.256-17.192-5.254-21.469-8.992-4.311-3.738-6.466-8.504-6.466-14.296 0-3.806 1.103-7.401 3.309-10.785 2.206-3.385 5.523-6.05 9.952-7.982 4.429-1.936 10.499-2.905 18.211-2.905 9.463 0 16.679 1.76 21.646 5.279 4.967 3.519 7.923 9.118 8.866 16.797l-21.57 1.263c-.573-3.334-1.776-5.759-3.612-7.274-1.835-1.515-4.37-2.273-7.603-2.273-2.661 0-4.664.564-6.01 1.692-1.347 1.128-2.02 2.501-2.02 4.117 0 1.179.556 2.24 1.667 3.183 1.078.977 3.637 1.886 7.678 2.728 10 2.155 17.17 4.336 21.495 6.542 4.328 2.206 7.476 4.942 9.447 8.209 1.97 3.267 2.955 6.921 2.955 10.962 0 4.749-1.313 9.127-3.94 13.13-2.627 4.01-6.298 7.05-11.01 9.118-4.715 2.071-10.659 3.107-17.832 3.107-12.595 0-21.318-2.425-26.17-7.274-4.85-4.85-7.594-11.01-8.234-18.489m83.83-49.557h61.33v15.812h-38.39v11.77h35.614v15.1h-35.614v14.599h39.504v16.771h-62.44v-74.06m77.06 37.08c0-12.09 3.368-21.503 10.1-28.24 6.736-6.736 16.11-10.1 28.14-10.1 12.326 0 21.823 3.309 28.491 9.926 6.668 6.618 10 15.887 10 27.809 0 8.655-1.457 15.753-4.37 21.293-2.913 5.54-7.123 9.851-12.629 12.932-5.506 3.082-12.368 4.622-20.585 4.622-8.352 0-15.264-1.33-20.737-3.991-5.473-2.661-9.91-6.87-13.311-12.629-3.401-5.759-5.102-12.966-5.102-21.621m22.884.101c0 7.476 1.389 12.848 4.168 16.11 2.778 3.267 6.559 4.9 11.341 4.9 4.917 0 8.722-1.6 11.417-4.799 2.694-3.199 4.04-8.941 4.04-17.226 0-6.971-1.406-12.06-4.218-15.281-2.812-3.216-6.626-4.824-11.442-4.824-4.614 0-8.318 1.633-11.11 4.9-2.795 3.267-4.193 8.672-4.193 16.216" fill="#417505" transform="matrix(.90631-.42262.42262.90631-59.17 96.92)"/></g></svg>